<svg xmlns="http://www.w3.org/2000/svg" viewBox="0 0 800 450" fill="none">
  <defs>
    <!-- Modern Glow Filter -->
    <filter id="glowSubtle" x="-20%" y="-20%" width="140%" height="140%">
      <feGaussianBlur stdDeviation="6" result="blur" />
      <feComposite in="SourceGraphic" in2="blur" operator="over" />
    </filter>

    <!-- Brand Gradients -->
    <linearGradient id="brandGradient" x1="0%" y1="0%" x2="100%" y2="100%">
      <stop offset="0%" stop-color="#10b981"/>  <!-- Bright Blue -->
      <stop offset="100%" stop-color="#10b981"/> <!-- Deep Indigo -->
    </linearGradient>

    <!-- Subtle Dots Grid -->
    <pattern id="dotGrid" width="30" height="30" patternUnits="userSpaceOnUse">
      <circle cx="2" cy="2" r="1.5" fill="#1E293B" />
    </pattern>
  </defs>

  <!-- Dark Slate Background -->
  <rect width="800" height="450" fill="#020617"/>
  <rect width="800" height="450" fill="url(#dotGrid)"/>

  <!-- Left Side: Enterprise Server Rack / Infrastructure -->
  <g transform="translate(100, 100)">
    <!-- Base Rack Frame -->
    <rect x="0" y="0" width="180" height="250" rx="8" fill="#0f172a" stroke="#1E293B" stroke-width="4"/>
    
    <!-- Server Unit 1 -->
    <rect x="10" y="20" width="160" height="40" rx="4" fill="#0F172A" stroke="#334155" stroke-width="2"/>
    <circle cx="30" cy="40" r="5" fill="#10b981">
       <animate attributeName="opacity" values="0.2;1;0.2" dur="1s" repeatCount="indefinite"/>
    </circle>
    <rect x="50" y="37" width="40" height="6" rx="2" fill="#10b981"/>
    <rect x="100" y="37" width="20" height="6" rx="2" fill="#334155"/>

    <!-- Server Unit 2 -->
    <rect x="10" y="80" width="160" height="40" rx="4" fill="#0F172A" stroke="#334155" stroke-width="2"/>
    <circle cx="30" cy="100" r="5" fill="#10b981">
       <animate attributeName="opacity" values="0.2;1;0.2" dur="1.5s" repeatCount="indefinite"/>
    </circle>
    <rect x="50" y="97" width="20" height="6" rx="2" fill="#334155"/>
    <rect x="80" y="97" width="50" height="6" rx="2" fill="#10b981"/>

    <!-- Server Unit 3 -->
    <rect x="10" y="140" width="160" height="40" rx="4" fill="#0F172A" stroke="#334155" stroke-width="2"/>
    <circle cx="30" cy="160" r="5" fill="#EAB308">
       <animate attributeName="opacity" values="0.5;1;0.5" dur="2s" repeatCount="indefinite"/>
    </circle>
    <rect x="50" y="157" width="40" height="6" rx="2" fill="#10b981"/>

    <!-- Big Storage Unit -->
    <rect x="10" y="200" width="160" height="30" rx="4" fill="#0F172A" stroke="#334155" stroke-width="2"/>
    <rect x="25" y="208" width="130" height="14" rx="2" fill="#1E293B"/>
  </g>

  <!-- Center: Flowing Data Pipelines / Integration -->
  <!-- Top Path -->
  <path d="M 280 140 C 380 140, 420 180, 520 180" fill="none" stroke="#1E293B" stroke-width="4"/>
  <path d="M 280 140 C 380 140, 420 180, 520 180" fill="none" stroke="url(#brandGradient)" stroke-width="4" stroke-dasharray="10 10">
     <animate attributeName="stroke-dashoffset" values="40;0" dur="1s" linear="linear" repeatCount="indefinite"/>
  </path>
  
  <!-- Middle Path -->
  <path d="M 280 220 L 520 220" fill="none" stroke="#1E293B" stroke-width="4"/>
  <path d="M 280 220 L 520 220" fill="none" stroke="url(#brandGradient)" stroke-width="4" stroke-dasharray="15 15">
     <animate attributeName="stroke-dashoffset" values="60;0" dur="1.5s" linear="linear" repeatCount="indefinite"/>
  </path>

  <!-- Bottom Path -->
  <path d="M 280 300 C 380 300, 420 260, 520 260" fill="none" stroke="#1E293B" stroke-width="4"/>
  <path d="M 280 300 C 380 300, 420 260, 520 260" fill="none" stroke="url(#brandGradient)" stroke-width="4" stroke-dasharray="10 10">
     <animate attributeName="stroke-dashoffset" values="40;0" dur="1.2s" linear="linear" repeatCount="indefinite"/>
  </path>

  <!-- Right Side: Cloud / Custom Application Ecosystem -->
  <g transform="translate(520, 120)">
    <!-- Rotating Ecosystem Core -->
    <path d="M 90 30 C 130 30, 160 60, 160 100 C 160 140, 130 170, 90 170 C 50 170, 20 140, 20 100 C 20 60, 50 30, 90 30 Z" 
          fill="none" stroke="#334155" stroke-width="2" stroke-dasharray="8 8">
      <animateTransform attributeName="transform" type="rotate" from="0 90 100" to="360 90 100" dur="15s" repeatCount="indefinite"/>
    </path>

    <!-- App / Cloud Nodes orbiting -->
    <g>
      <animateTransform attributeName="transform" type="rotate" from="360 90 100" to="0 90 100" dur="10s" repeatCount="indefinite"/>
      <!-- Node 1: Web App -->
      <circle cx="90" cy="30" r="14" fill="#0f172a" stroke="#10b981" stroke-width="3" filter="url(#glowSubtle)"/>
      <!-- Node 2: Mobile App -->
      <circle cx="150" cy="135" r="12" fill="#0f172a" stroke="#10b981" stroke-width="3" filter="url(#glowSubtle)"/>
      <!-- Node 3: CRM System -->
      <circle cx="30" cy="135" r="16" fill="#0f172a" stroke="#10b981" stroke-width="3" filter="url(#glowSubtle)"/>
    </g>

    <!-- Center Pulse Globe (BabulTech Core) -->
    <circle cx="90" cy="100" r="28" fill="#0F172A" stroke="url(#brandGradient)" stroke-width="4" filter="url(#glowSubtle)"/>
    <!-- Inner Core Beating -->
    <circle cx="90" cy="100" r="14" fill="#10b981">
      <animate attributeName="opacity" values="0.3;1;0.3" dur="2s" repeatCount="indefinite"/>
      <animate attributeName="r" values="12;16;12" dur="2s" repeatCount="indefinite"/>
    </circle>
  </g>

  <!-- Overlay Text: Indicating the IT & Dev Process -->
  <text x="190" y="380" fill="#94A3B8" font-family="sans-serif" font-size="12" font-weight="600" text-anchor="middle" letter-spacing="2">INFRASTRUCTURE</text>
  <text x="610" y="380" fill="#94A3B8" font-family="sans-serif" font-size="12" font-weight="600" text-anchor="middle" letter-spacing="2">SCALABLE SOFTWARE</text>

  <!-- Scanning grid line overlapping everything -->
  <rect x="0" y="0" width="800" height="2" fill="#10b981" opacity="0.3" filter="url(#glowSubtle)">
    <animate attributeName="y" values="-20;470;-20" dur="5s" repeatCount="indefinite"/>
  </rect>
</svg>