<svg xmlns="http://www.w3.org/2000/svg" viewBox="0 0 500 200" fill="none">
  <defs>
    <!-- Background Graph Grid -->
    <pattern id="graphGrid" width="20" height="20" patternUnits="userSpaceOnUse">
      <path d="M 20 0 L 0 0 0 20" fill="none" stroke="#1E293B" stroke-width="0.5"/>
    </pattern>
    <filter id="lineGlow">
      <feGaussianBlur stdDeviation="4" result="blur" />
      <feComposite in="SourceGraphic" in2="blur" operator="over" />
    </filter>
  </defs>

  <rect width="500" height="200" fill="url(#graphGrid)" />

  <!-- Animated Bar Charts (Background) -->
  <g transform="translate(40, 160) scale(1, -1)">
    <rect x="0" y="0" width="30" height="40" rx="4" fill="#0F172A" stroke="#1E293B">
      <animate attributeName="height" values="40;80;40" dur="3s" repeatCount="indefinite" />
    </rect>
    <rect x="50" y="0" width="30" height="60" rx="4" fill="#0F172A" stroke="#1E293B">
      <animate attributeName="height" values="60;100;60" dur="4s" repeatCount="indefinite" />
    </rect>
    <rect x="100" y="0" width="30" height="120" rx="4" fill="#0F172A" stroke="#1E293B">
      <animate attributeName="height" values="120;150;120" dur="3.5s" repeatCount="indefinite" />
    </rect>
    <rect x="150" y="0" width="30" height="100" rx="4" fill="#10b981" fill-opacity="0.2" stroke="#10b981">
       <animate attributeName="height" values="100;140;100" dur="2.5s" repeatCount="indefinite" />
    </rect>
    <rect x="200" y="0" width="30" height="80" rx="4" fill="#0F172A" stroke="#1E293B">
      <animate attributeName="height" values="80;40;80" dur="4s" repeatCount="indefinite" />
    </rect>
  </g>

  <!-- Glowing Line Chart Activity -->
  <path d="M 0 140 C 50 110, 100 130, 150 90 C 200 50, 250 100, 300 70 C 350 40, 400 80, 500 40" 
        fill="none" stroke="#10b981" stroke-width="4" filter="url(#lineGlow)" stroke-linecap="round">
      <animate attributeName="stroke-dasharray" values="0,1000;1000,0" dur="4s" repeatCount="indefinite" />
  </path>

  <!-- Data Nodes -->
  <circle cx="150" cy="90" r="6" fill="#0f172a" stroke="#10b981" stroke-width="3" filter="url(#lineGlow)"/>
  <circle cx="300" cy="70" r="6" fill="#0f172a" stroke="#10b981" stroke-width="3" filter="url(#lineGlow)"/>
  
  <!-- Overlay Floating Intel Badge -->
  <rect x="360" y="20" width="120" height="40" rx="20" fill="#0F172A" fill-opacity="0.9" stroke="#334155" stroke-width="1.5" />
  <circle cx="380" cy="40" r="4" fill="#10b981">
    <animate attributeName="opacity" values="0;1;0" dur="1.5s" repeatCount="indefinite"/>
  </circle>
  <text x="395" y="44" fill="#E2E8F0" font-family="sans-serif" font-size="12" font-weight="600">LIVE SYNC</text>

</svg>